<?xml version="1.0" encoding="UTF-8" standalone="no"?>
<svg xmlns:rdf="http://www.w3.org/1999/02/22-rdf-syntax-ns#" xmlns="http://www.w3.org/2000/svg" viewBox="0 0 998.00001 111.739" height="111.74" width="998" version="1.1" xmlns:cc="http://creativecommons.org/ns#" xmlns:dc="http://purl.org/dc/elements/1.1/">
 <g fill-rule="evenodd" clip-rule="evenodd" transform="translate(-12.19,-10.975)">
  <g fill="#ed1c24">
   <path d="m125.7 114.25s-0.503-18.9-0.503-20.887c0-1.991 1.514-2.486 3.526-1.991 2.018 0.495 19.664 3.978 19.664 3.978s-1.512-3.978-2.521-6.465c-1.006-2.977 0.506-3.478 1.009-3.973 0.5-0.504 19.66-16.912 19.66-16.912l-3.026-1.491c-2.017-0.993-1.509-2.484-1.008-3.48 0-0.996 3.026-11.935 3.026-11.935s-8.07 1.489-10.084 1.989c-1.514 0-2.018-0.5-2.521-1.494-0.506-0.993-2.523-5.967-2.523-5.967s-10.082 10.941-10.082 11.437c-2.018 1.494-4.038 0.5-3.529-1.491 0-1.989 5.041-24.367 5.041-24.367s-5.549 3.48-7.059 4.476c-2.017 0.996-2.521 0.996-3.529-0.996-1.008-1.491-7.561-14.919-7.561-14.919s-7.061 13.428-7.564 14.919c-1.011 1.992-2.017 1.992-4.037 0.996-1.509-0.996-7.056-4.476-7.056-4.476s5.044 22.377 5.044 24.367c0.503 1.992-1.515 2.985-3.026 1.491-0.506-0.496-10.59-11.437-10.59-11.437s-2.017 4.974-2.521 5.967c-0.503 0.993-1.006 1.494-2.518 1.494-2.02-0.5-10.59-1.989-10.59-1.989s3.526 10.938 4.035 11.935c0 0.996 0.503 2.487-1.514 3.48l-3.019 1.491s19.158 16.408 19.661 16.914c0.506 0.495 2.018 0.996 1.009 3.973-1.009 2.487-2.521 6.465-2.521 6.465s18.152-3.482 19.664-3.978c2.02-0.495 3.529 0 3.529 1.991 0 1.986-0.503 20.887-0.503 20.887h4.538v-0.001z"/>
   <polygon points="12.19 122.71 68.142 122.71 68.142 122.71 68.142 11.311 12.19 11.311"/>
   <polygon points="178.81 122.71 234.76 122.71 234.76 122.71 234.76 11.311 178.81 11.311"/>
  </g>
  <g fill="#ffffff">
  <path d="m746.01 25.99c-0.258-5.183-1.898-15.015-18.348-15.015-11.413 0-16.212 7.213-16.212 14.555 0 8.199 6.955 10.363 10.041 11.081l9.644 2.231c7.724 1.832 10.03 3.405 10.03 8.325 0 6.754-7.739 7.933-12.332 7.933-6.036 0-12.986-2.49-12.986-11.014h-5.96c0 4.394 0.79 8.325 4.783 11.932 2.09 1.904 5.506 4.536 14.23 4.536 8.064 0 18.431-3.093 18.431-14.238 0-7.474-4.603-11.147-10.691-12.587l-13.44-3.083c-2.75-0.66-5.583-1.968-5.583-5.97 0-7.146 6.759-8.26 10.753-8.26 5.31 0 11.346 2.296 11.666 9.574h5.974zm21.247 3.802v-4.782h-5.505v-9.576h-5.779v9.576h-4.648v4.783h4.648v22.62c0 4.13 1.254 7.353 6.956 7.353 0.593 0 2.233-0.258 4.328-0.467v-4.522h-2.027c-1.187 0-3.478 0-3.478-2.691v-22.294h5.505zm10.753 5.64c0.388-2.626 1.306-6.623 7.869-6.623 5.443 0 8.069 1.966 8.069 5.573 0 3.411-1.641 3.939-3.028 4.066l-9.499 1.179c-9.576 1.184-10.428 7.869-10.428 10.755 0 5.897 4.458 9.909 10.752 9.909 6.692 0 10.17-3.158 12.395-5.585 0.19 2.626 0.985 5.258 6.099 5.258 1.305 0 2.161-0.392 3.142-0.666v-4.197c-0.645 0.131-1.372 0.266-1.898 0.266-1.177 0-1.898-0.591-1.898-2.036v-19.736c0-8.784-9.969-9.574-12.719-9.574-8.467 0-13.905 3.217-14.169 11.411h5.313zm15.809 11.996c0 4.595-5.253 8.067-10.629 8.067-4.324 0-6.228-2.229-6.228-5.967 0-4.326 4.52-5.18 7.342-5.572 7.146-0.921 8.596-1.445 9.515-2.162v5.634zm28.12-17.636v-4.782h-5.506v-9.576h-5.763v9.576h-4.67v4.783h4.67v22.62c0 4.13 1.238 7.353 6.939 7.353 0.594 0 2.234-0.258 4.329-0.467v-4.522h-2.033c-1.171 0-3.473 0-3.473-2.691v-22.294h5.507zm11.542-4.782h-5.764v34.299h5.764v-34.299zm0-6.233v-6.553h-5.764v6.553h5.764zm33.708 16c0-1.703-0.856-10.755-13.121-10.755-6.749 0-12.977 3.408-12.977 10.949 0 4.721 3.143 7.149 7.936 8.331l6.682 1.636c4.923 1.249 6.821 2.164 6.821 4.922 0 3.803-3.746 5.438-7.868 5.438-8.127 0-8.916-4.324-9.112-7.015h-5.582c0.206 4.13 1.191 12.009 14.756 12.009 7.734 0 13.57-4.272 13.57-11.351 0-4.657-2.492-7.28-9.639-9.05l-5.763-1.442c-4.458-1.115-6.229-1.77-6.229-4.592 0-4.259 5.052-4.848 6.821-4.848 7.275 0 8.064 3.602 8.132 5.769h5.573v-0.001zm20.325-4.985v-4.782h-5.5v-9.576h-5.779v9.576h-4.654v4.783h4.654v22.62c0 4.13 1.249 7.353 6.95 7.353 0.599 0 2.224-0.258 4.329-0.467v-4.522h-2.043c-1.177 0-3.457 0-3.457-2.691v-22.294h5.5zm11.542-4.782h-5.778v34.299h5.778v-34.299zm0-6.233v-6.553h-5.778v6.553h5.778zm36.778 6.233h-5.434v4.85h-0.134c-1.378-1.966-4.004-5.838-10.231-5.838-9.117 0-14.298 7.477-14.298 17.117 0 8.194 3.411 19.153 15.082 19.153 4.587 0 7.61-2.172 9.111-4.6h0.135v17.19h5.769v-47.872zm-5.506 18.747c0 9.115-5.706 11.54-9.38 11.54-6.295 0-9.241-5.704-9.241-13.242 0-4.394 0.454-12.85 9.37-12.85 8.338 0 9.251 8.98 9.251 14.552zm41.634 15.541v-34.288h-5.764v18.879c0 4.982-2.172 11.408-9.447 11.408-3.735 0-6.62-1.899-6.62-7.536v-22.751h-5.778v24.65c0 8.196 6.099 10.631 11.155 10.631 5.505 0 8.456-2.108 10.882-6.109l0.129 0.134v4.982h5.443zm32-10.753c-0.19 2.559-3.4 6.751-8.854 6.751-6.62 0-9.964-4.128-9.964-11.274h25.045c0-12.133-4.845-20.001-14.746-20.001-11.346 0-16.465 8.459-16.465 19.083 0 9.899 5.712 17.187 15.34 17.187 5.521 0 7.739-1.318 9.318-2.368 4.329-2.884 5.897-7.74 6.099-9.378h-5.773zm-18.817-9.114c0-5.31 4.2-10.227 9.51-10.227 7.017 0 9.24 4.917 9.581 10.227h-19.091zm-234.31 49.105c-0.918-7.869-7.213-15.407-19.349-15.407-13.699 0-21.97 10.03-21.97 24.519 0 18.096 10.494 25.066 21.181 25.066 3.539 0 17.966-0.795 20.592-18.575h-6.166c-2.161 10.949-9.308 12.925-13.44 12.925-11.672 0-15.598-8.528-15.598-19.606 0-12.394 6.872-18.688 15.401-18.688 4.52 0 11.413 1.507 13.183 9.768h6.166v-0.002zm12.523 9.049c0.387-2.621 1.306-6.625 7.858-6.625 5.454 0 8.064 1.971 8.064 5.583 0 3.405-1.625 3.921-3.014 4.056l-9.509 1.182c-9.566 1.181-10.417 7.863-10.417 10.752 0 5.897 4.457 9.912 10.747 9.912 6.687 0 10.165-3.158 12.398-5.583 0.191 2.621 0.985 5.253 6.084 5.253 1.32 0 2.177-0.387 3.157-0.666v-4.194c-0.66 0.129-1.383 0.258-1.898 0.258-1.177 0-1.899-0.588-1.899-2.022v-19.742c0-8.787-9.963-9.576-12.718-9.576-8.468 0-13.905 3.22-14.169 11.413h5.316v-0.001zm15.794 11.992c0 4.598-5.247 8.069-10.613 8.069-4.329 0-6.243-2.224-6.243-5.964 0-4.324 4.53-5.181 7.357-5.573 7.146-0.923 8.58-1.444 9.499-2.167v5.635zm43.475-11.465c0-9.772-6.692-11.939-11.991-11.939-5.908 0-9.128 4.004-10.366 5.841h-0.129v-4.86h-5.443v34.302h5.764v-18.688c0-9.318 5.778-11.408 9.05-11.408 5.645 0 7.342 3.008 7.342 8.982v21.114h5.774v-23.344h-0.001zm13.64-0.53c0.397-2.621 1.315-6.625 7.868-6.625 5.443 0 8.07 1.971 8.07 5.583 0 3.405-1.646 3.921-3.019 4.056l-9.51 1.182c-9.576 1.181-10.417 7.863-10.417 10.752 0 5.897 4.463 9.912 10.753 9.912 6.682 0 10.159-3.158 12.383-5.583 0.206 2.621 0.98 5.253 6.099 5.253 1.321 0 2.173-0.387 3.152-0.666v-4.194c-0.66 0.129-1.383 0.258-1.903 0.258-1.182 0-1.904-0.588-1.904-2.022v-19.742c0-8.787-9.968-9.576-12.719-9.576-8.456 0-13.895 3.22-14.168 11.413h5.315v-0.001zm15.804 11.992c0 4.598-5.247 8.069-10.623 8.069-4.329 0-6.229-2.224-6.229-5.964 0-4.324 4.521-5.181 7.338-5.573 7.15-0.923 8.596-1.444 9.514-2.167v5.635zm43.991-35.2h-5.763v17.171l-0.129 0.465c-1.383-1.971-4.004-5.841-10.237-5.841-9.112 0-14.292 7.481-14.292 17.109 0 8.204 3.41 19.163 15.082 19.163 3.348 0 7.279-1.058 9.771-5.717h0.129v4.727h5.438v-47.077h0.001zm-24.44 29.82c0-4.385 0.449-12.842 9.365-12.842 8.338 0 9.256 8.982 9.256 14.55 0 9.117-5.712 11.543-9.385 11.543-6.289 0-9.236-5.702-9.236-13.251zm37.568-6.615c0.388-2.621 1.306-6.625 7.874-6.625 5.438 0 8.06 1.971 8.06 5.583 0 3.405-1.642 3.921-3.023 4.056l-9.494 1.182c-9.581 1.181-10.433 7.863-10.433 10.752 0 5.897 4.458 9.912 10.752 9.912 6.692 0 10.17-3.158 12.394-5.583 0.191 2.621 0.98 5.253 6.1 5.253 1.305 0 2.156-0.387 3.142-0.666v-4.194c-0.66 0.129-1.367 0.258-1.903 0.258-1.177 0-1.899-0.588-1.899-2.022v-19.742c0-8.787-9.963-9.576-12.719-9.576-8.461 0-13.899 3.22-14.157 11.413h5.306v-0.001zm15.805 11.992c0 4.598-5.248 8.069-10.619 8.069-4.334 0-6.232-2.224-6.232-5.964 0-4.324 4.524-5.181 7.342-5.573 7.142-0.923 8.591-1.444 9.51-2.167v5.635z"/>
  <path d="m380.06 25.99c-0.258-5.183-1.899-15.015-18.358-15.015-11.405 0-16.193 7.213-16.193 14.555 0 8.199 6.95 10.363 10.036 11.081l9.636 2.231c7.739 1.832 10.03 3.405 10.03 8.325 0 6.754-7.74 7.933-12.321 7.933-6.034 0-12.984-2.49-12.984-11.014h-5.97c0 4.394 0.79 8.325 4.788 11.932 2.1 1.904 5.511 4.536 14.238 4.536 8.049 0 18.42-3.093 18.42-14.238 0-7.474-4.592-11.147-10.691-12.587l-13.43-3.083c-2.76-0.66-5.577-1.968-5.577-5.97 0-7.146 6.754-8.26 10.75-8.26 5.314 0 11.351 2.296 11.671 9.574h5.963zm21.247 3.802v-4.782h-5.5v-9.576h-5.779v9.576h-4.654v4.783h4.654v22.62c0 4.13 1.249 7.353 6.956 7.353 0.588 0 2.229-0.258 4.324-0.467v-4.522h-2.033c-1.176 0-3.467 0-3.467-2.691v-22.294h5.499zm10.753 5.64c0.392-2.626 1.311-6.623 7.874-6.623 5.438 0 8.059 1.966 8.059 5.573 0 3.411-1.63 3.939-3.013 4.066l-9.504 1.179c-9.577 1.184-10.433 7.869-10.433 10.755 0 5.897 4.458 9.909 10.763 9.909 6.687 0 10.154-3.158 12.383-5.585 0.196 2.626 0.991 5.258 6.099 5.258 1.321 0 2.167-0.392 3.147-0.666v-4.197c-0.65 0.131-1.373 0.266-1.899 0.266-1.176 0-1.899-0.591-1.899-2.036v-19.736c0-8.784-9.968-9.574-12.724-9.574-8.462 0-13.9 3.217-14.158 11.411h5.305zm15.798 11.996c0 4.595-5.242 8.067-10.618 8.067-4.324 0-6.233-2.229-6.233-5.967 0-4.326 4.53-5.18 7.347-5.572 7.151-0.921 8.596-1.445 9.504-2.162v5.634zm28.131-17.636v-4.782h-5.5v-9.576h-5.769v9.576h-4.654v4.783h4.654v22.62c0 4.13 1.238 7.353 6.945 7.353 0.588 0 2.229-0.258 4.324-0.467v-4.522h-2.023c-1.187 0-3.478 0-3.478-2.691v-22.294h5.501zm11.548-4.782h-5.779v34.299h5.779v-34.299zm0-6.233v-6.553h-5.779v6.553h5.779zm33.702 16c0-1.703-0.856-10.755-13.116-10.755-6.749 0-12.982 3.408-12.982 10.949 0 4.721 3.147 7.149 7.936 8.331l6.687 1.636c4.922 1.249 6.821 2.164 6.821 4.922 0 3.803-3.746 5.438-7.874 5.438-8.122 0-8.916-4.324-9.112-7.015h-5.583c0.206 4.13 1.187 12.009 14.767 12.009 7.729 0 13.57-4.272 13.57-11.351 0-4.657-2.498-7.28-9.639-9.05l-5.768-1.442c-4.458-1.115-6.233-1.77-6.233-4.592 0-4.259 5.056-4.848 6.821-4.848 7.275 0 8.06 3.602 8.122 5.769h5.583v-0.001zm20.329-4.985v-4.782h-5.511v-9.576h-5.768v9.576h-4.654v4.783h4.654v22.62c0 4.13 1.249 7.353 6.955 7.353 0.589 0 2.219-0.258 4.324-0.467v-4.522h-2.043c-1.177 0-3.468 0-3.468-2.691v-22.294h5.511zm11.538-4.782h-5.769v34.299h5.769v-34.299zm0-6.233v-6.553h-5.769v6.553h5.769zm35.673 17.77c-0.464-5.97-3.88-12.525-12.857-12.525-11.331 0-16.449 8.459-16.449 19.083 0 9.899 5.696 17.187 15.334 17.187 10.03 0 13.374-7.68 13.973-13.124h-5.583c-0.98 5.245-4.323 8.129-8.193 8.129-7.936 0-9.37-7.278-9.37-13.178 0-6.099 2.291-12.915 9.433-12.915 4.859 0 7.419 2.755 8.131 7.342h5.581v0.001zm30.814-1.77c0-1.703-0.856-10.755-13.116-10.755-6.748 0-12.981 3.408-12.981 10.949 0 4.721 3.147 7.149 7.936 8.331l6.688 1.636c4.922 1.249 6.82 2.164 6.82 4.922 0 3.803-3.735 5.438-7.873 5.438-8.121 0-8.916-4.324-9.112-7.015h-5.563c0.187 4.13 1.177 12.009 14.747 12.009 7.739 0 13.569-4.272 13.569-11.351 0-4.657-2.486-7.28-9.628-9.05l-5.778-1.442c-4.458-1.115-6.233-1.77-6.233-4.592 0-4.259 5.057-4.848 6.821-4.848 7.275 0 8.069 3.602 8.132 5.769h5.571v-0.001zm-214.67 53.759c-0.918-7.869-7.213-15.407-19.349-15.407-13.702 0-21.962 10.03-21.962 24.519 0 18.096 10.49 25.066 21.178 25.066 3.539 0 17.966-0.795 20.587-18.575h-6.161c-2.167 10.949-9.308 12.925-13.436 12.925-11.679 0-15.61-8.528-15.61-19.606 0-12.394 6.888-18.688 15.404-18.688 4.53 0 11.413 1.507 13.178 9.768h6.171v-0.002zm12.528 9.049c0.381-2.621 1.311-6.625 7.863-6.625 5.438 0 8.059 1.971 8.059 5.583 0 3.405-1.641 3.921-3.013 4.056l-9.504 1.182c-9.577 1.181-10.433 7.863-10.433 10.752 0 5.897 4.458 9.912 10.763 9.912 6.687 0 10.165-3.158 12.394-5.583 0.186 2.621 0.98 5.253 6.088 5.253 1.311 0 2.167-0.387 3.147-0.666v-4.194c-0.65 0.129-1.373 0.258-1.899 0.258-1.176 0-1.898-0.588-1.898-2.022v-19.742c0-8.787-9.969-9.576-12.724-9.576-8.462 0-13.9 3.22-14.158 11.413h5.315v-0.001zm15.799 11.992c0 4.598-5.252 8.069-10.629 8.069-4.324 0-6.223-2.224-6.223-5.964 0-4.324 4.52-5.181 7.337-5.573 7.151-0.923 8.596-1.444 9.515-2.167v5.635zm43.464-11.465c0-9.772-6.687-11.939-11.991-11.939-5.902 0-9.112 4.004-10.36 5.841h-0.134v-4.86h-5.449v34.302h5.769v-18.688c0-9.318 5.779-11.408 9.061-11.408 5.634 0 7.337 3.008 7.337 8.982v21.114h5.769v-23.344h-0.002zm13.643-0.527c0.392-2.621 1.311-6.625 7.874-6.625 5.438 0 8.06 1.971 8.06 5.583 0 3.405-1.641 3.921-3.013 4.056l-9.515 1.182c-9.566 1.181-10.422 7.863-10.422 10.752 0 5.897 4.458 9.912 10.763 9.912 6.687 0 10.154-3.158 12.383-5.583 0.196 2.621 0.98 5.253 6.099 5.253 1.311 0 2.167-0.387 3.137-0.666v-4.194c-0.65 0.129-1.362 0.258-1.898 0.258-1.176 0-1.899-0.588-1.899-2.022v-19.742c0-8.787-9.958-9.576-12.713-9.576-8.462 0-13.9 3.22-14.168 11.413h5.312v-0.001zm15.798 11.992c0 4.598-5.242 8.069-10.619 8.069-4.334 0-6.233-2.224-6.233-5.964 0-4.324 4.53-5.181 7.348-5.573 7.141-0.923 8.596-1.444 9.504-2.167v5.635zm44.002-35.2h-5.769v17.171l-0.124 0.465c-1.394-1.971-4.004-5.841-10.236-5.841-9.112 0-14.292 7.481-14.292 17.109 0 8.204 3.405 19.163 15.077 19.163 3.343 0 7.274-1.058 9.772-5.717h0.134v4.727h5.438v-47.077zm-24.46 29.82c0-4.385 0.454-12.842 9.37-12.842 8.338 0 9.256 8.982 9.256 14.55 0 9.117-5.706 11.543-9.38 11.543-6.294 0-9.246-5.702-9.246-13.251zm37.573-6.615c0.393-2.621 1.301-6.625 7.874-6.625 5.438 0 8.06 1.971 8.06 5.583 0 3.405-1.641 3.921-3.023 4.056l-9.494 1.182c-9.587 1.181-10.433 7.863-10.433 10.752 0 5.897 4.458 9.912 10.753 9.912 6.697 0 10.154-3.158 12.394-5.583 0.195 2.621 0.98 5.253 6.099 5.253 1.3 0 2.156-0.387 3.147-0.666v-4.194c-0.671 0.129-1.373 0.258-1.909 0.258-1.177 0-1.899-0.588-1.899-2.022v-19.742c0-8.787-9.958-9.576-12.713-9.576-8.462 0-13.91 3.22-14.169 11.413h5.313v-0.001zm15.809 11.992c0 4.598-5.253 8.069-10.629 8.069-4.324 0-6.223-2.224-6.223-5.964 0-4.324 4.52-5.181 7.337-5.573 7.142-0.923 8.597-1.444 9.515-2.167v5.635z"/>
  </g>
 </g>
</svg>
